<?xml version='1.0' encoding='utf-8'?>
<!DOCTYPE svg PUBLIC '-//W3C//DTD SVG 1.1//EN' 'http://www.w3.org/Graphics/SVG/1.1/DTD/svg11.dtd'>
<svg version="1.1" xmlns="http://www.w3.org/2000/svg" viewBox="0 0 512 512" xmlns:xlink="http://www.w3.org/1999/xlink" enable-background="new 0 0 512 512">
  <g>
    <g>
      <g>
        <path d="m256,242.4c-63.8,0-115.7-51.9-115.7-115.7 0-63.8 51.9-115.7 115.7-115.7 63.8,0 115.7,51.9 115.7,115.7 0,63.8-51.9,115.7-115.7,115.7zm0-190.6c-41.3,1.42109e-14-74.9,33.6-74.9,74.9 0,41.3 33.6,74.9 74.9,74.9 41.3,0 74.9-33.6 74.9-74.9 0-41.3-33.6-74.9-74.9-74.9z"/>
      </g>
      <g>
        <path d="m480.6,501h-449.2c-11.3,0-20.4-9.1-20.4-20.4 0-66.7 26-129.2 73.1-176 30.4-30.2 73.3-47.5 117.6-47.5h108.6c44.4,0 87.2,17.3 117.6,47.5 47.1,46.8 73.1,109.3 73.1,176 0,11.3-9.1,20.4-20.4,20.4zm-427.8-40.8h406.4c-4.6-48-25.6-92.4-60.1-126.6-22.8-22.6-55.2-35.6-88.8-35.6h-108.6c-33.7,0-66,13-88.8,35.6-34.5,34.2-55.5,78.6-60.1,126.6z"/>
      </g>
    </g>
  </g>
</svg>
